<svg width="206" height="231" viewBox="0 0 206 231" fill="none" xmlns="http://www.w3.org/2000/svg">
<path d="M143.143 84C143.143 96.1503 133.293 106 121.143 106C108.992 106 99.1426 96.1503 99.1426 84C99.1426 71.8497 108.992 62 121.143 62C133.293 62 143.143 71.8497 143.143 84Z" fill="#FFC131"/>
<ellipse cx="84.1426" cy="147" rx="22" ry="22" transform="rotate(180 84.1426 147)" fill="#24C8DB"/>
<path fill-rule="evenodd" clip-rule="evenodd" d="M166.738 154.548C166.669 154.549 166.599 154.549 166.529 154.549C142.372 154.549 122.653 134.829 122.653 110.673C122.653 86.516 142.372 66.7969 166.529 66.7969C166.599 66.7969 166.669 66.7972 166.738 66.7979C166.144 66.2731 165.542 65.7592 164.932 65.2567C184.358 82.0003 197.286 106.32 197.286 133.49C197.286 165.644 180.375 193.794 154.709 210.26C177.661 191.306 182.633 173.071 166.738 154.548ZM38.5476 76.4518C38.6173 76.4512 38.6871 76.4509 38.757 76.4509C62.9136 76.4509 82.6327 96.17 82.6327 120.327C82.6327 144.483 62.9136 164.203 38.757 164.203C38.6871 164.203 38.6173 164.202 38.5476 164.202C39.1416 164.726 39.7436 165.24 40.3536 165.743C20.9274 148.999 8 124.68 8 97.5098C8 65.3557 24.9108 37.206 50.5765 20.7396C27.6247 39.6941 22.6526 57.9285 38.5476 76.4518Z" fill="url(#paint0_linear_364_1401)"/>
<defs>
<linearGradient id="paint0_linear_364_1401" x1="8" y1="20.7396" x2="197.286" y2="20.7396" gradientUnits="userSpaceOnUse">
<stop stop-color="#FFC131"/>
<stop offset="1" stop-color="#24C8DB"/>
</linearGradient>
</defs>
</svg>
